<?xml version="1.0" encoding="utf-8"?>
<!-- Generator: Adobe Illustrator 22.1.0, SVG Export Plug-In . SVG Version: 6.00 Build 0)  -->
<svg version="1.1" id="Layer_1" xmlns="http://www.w3.org/2000/svg" xmlns:xlink="http://www.w3.org/1999/xlink" x="0px" y="0px"
	 viewBox="0 0 500 500" style="enable-background:new 0 0 500 500;" xml:space="preserve">
<style type="text/css">
	.st0{fill:#58595B;}
	.st1{fill:#F7941D;}
	.st2{fill:#FFFFFF;}
</style>
<polygon class="st0" points="416.1,10.2 4,10.2 4,73.4 352.8,73.4 "/>
<polygon class="st0" points="445.1,10.2 381.8,73.4 493.5,73.4 493.5,10.2 "/>
<circle class="st1" cx="38.3" cy="41.8" r="24.6"/>
<g>
	<path class="st0" d="M58.1,44.6H27.7c0.4,2.7,1.6,4.8,3.5,6.4c1.9,1.6,4.3,2.4,7.3,2.4c3.5,0,6.6-1.2,9.1-3.7l8,3.7
		c-2,2.8-4.4,4.9-7.1,6.3s-6.1,2-9.9,2c-5.9,0-10.7-1.9-14.5-5.6c-3.7-3.7-5.6-8.4-5.6-14c0-5.8,1.9-10.5,5.6-14.3s8.4-5.7,14-5.7
		c5.9,0,10.8,1.9,14.5,5.7s5.6,8.8,5.6,15.1L58.1,44.6z M48.6,37.1C48,35,46.8,33.3,44.9,32c-1.8-1.3-4-2-6.4-2c-2.6,0-5,0.7-7,2.2
		c-1.3,0.9-2.4,2.6-3.5,4.9C28,37.1,48.6,37.1,48.6,37.1z"/>
</g>
<path class="st2" d="M67,23.2h20.4v7H74V37h13.3v6.8H74v9.8h13.3v7H67V23.2z"/>
<path class="st2" d="M113.6,22.3h6.9v38.3h-6.9v-2.9c-1.4,1.3-2.7,2.2-4.1,2.8s-2.8,0.9-4.4,0.9c-3.6,0-6.7-1.4-9.3-4.2
	C93.3,54.4,92,51,92,46.8c0-4.3,1.3-7.8,3.8-10.5s5.6-4.1,9.2-4.1c1.7,0,3.2,0.3,4.7,0.9c1.5,0.6,2.8,1.6,4,2.8L113.6,22.3
	L113.6,22.3z M106.4,38.7c-2.1,0-3.9,0.8-5.3,2.3S99,44.5,99,46.8c0,2.4,0.7,4.4,2.2,5.9c1.4,1.5,3.2,2.3,5.3,2.3
	c2.2,0,4-0.8,5.4-2.3s2.2-3.5,2.2-6c0-2.4-0.7-4.4-2.2-5.8C110.4,39.4,108.5,38.7,106.4,38.7z"/>
<g>
	<circle class="st1" cx="83.2" cy="157.3" r="61.8"/>
	<g>
		<path class="st0" d="M132.9,164.3H56.5c1,6.8,4,12.1,8.8,16.1s10.8,6,18.3,6c8.8,0,16.6-3,22.9-9.3l20.1,9.3
			c-5,7-11.1,12.3-17.8,15.8c-6.8,3.5-15.3,5-24.9,5c-14.8,0-26.9-4.8-36.4-14.1c-9.3-9.3-14.1-21.1-14.1-35.2
			c0-14.6,4.8-26.4,14.1-35.9s21.1-14.3,35.2-14.3c14.8,0,27.1,4.8,36.4,14.3c9.3,9.5,14.1,22.1,14.1,37.9L132.9,164.3z
			 M109.1,145.5c-1.5-5.3-4.5-9.5-9.3-12.8c-4.5-3.3-10.1-5-16.1-5c-6.5,0-12.6,1.8-17.6,5.5c-3.3,2.3-6,6.5-8.8,12.3
			C57.3,145.5,109.1,145.5,109.1,145.5z"/>
	</g>
	<path class="st0" d="M155.3,110.6h51.3v17.6h-33.7v17.1h33.4v17.1h-33.4V187h33.4v17.6h-51L155.3,110.6L155.3,110.6z"/>
	<path class="st0" d="M272.4,108.3h17.3v96.2h-17.3v-7.3c-3.5,3.3-6.8,5.5-10.3,7s-7,2.3-11.1,2.3c-9,0-16.8-3.5-23.4-10.6
		c-6.3-7-9.5-15.6-9.5-26.1c0-10.8,3.3-19.6,9.5-26.4c6.3-6.8,14.1-10.3,23.1-10.3c4.3,0,8,0.8,11.8,2.3s7,4,10.1,7v-34.2h-0.2
		V108.3z M254.3,149.5c-5.3,0-9.8,2-13.3,5.8s-5.3,8.8-5.3,14.6c0,6,1.8,11.1,5.5,14.8c3.5,3.8,8,5.8,13.3,5.8
		c5.5,0,10.1-2,13.6-5.8s5.5-8.8,5.5-15.1c0-6-1.8-11.1-5.5-14.6C264.4,151.3,259.6,149.5,254.3,149.5z"/>
</g>
<g>
	<circle class="st2" cx="83.2" cy="308.3" r="61.8"/>
	<g>
		<path class="st1" d="M132.9,315.3H56.5c1,6.8,4,12.1,8.8,16.1s10.8,6,18.3,6c8.8,0,16.6-3,22.9-9.3l20.1,9.3
			c-5,7-11.1,12.3-17.8,15.8c-6.8,3.5-15.3,5-24.9,5c-14.8,0-26.9-4.8-36.4-14.1c-9.3-9.3-14.1-21.1-14.1-35.2
			c0-14.6,4.8-26.4,14.1-35.9s21.1-14.3,35.2-14.3c14.8,0,27.1,4.8,36.4,14.3c9.3,9.5,14.1,22.1,14.1,37.9L132.9,315.3z
			 M109.1,296.5c-1.5-5.3-4.5-9.5-9.3-12.8c-4.5-3.3-10.1-5-16.1-5c-6.5,0-12.6,1.8-17.6,5.5c-3.3,2.3-6,6.5-8.8,12.3
			C57.3,296.5,109.1,296.5,109.1,296.5z"/>
	</g>
	<path class="st2" d="M155.3,261.6h51.3v17.6h-33.7v17.1h33.4v17.1h-33.4V338h33.4v17.6h-51L155.3,261.6L155.3,261.6z"/>
	<path class="st2" d="M272.4,259.3h17.3v96.2h-17.3v-7.3c-3.5,3.3-6.8,5.5-10.3,7s-7,2.3-11.1,2.3c-9,0-16.8-3.5-23.4-10.6
		c-6.3-7-9.5-15.6-9.5-26.1c0-10.8,3.3-19.6,9.5-26.4c6.3-6.8,14.1-10.3,23.1-10.3c4.3,0,8,0.8,11.8,2.3s7,4,10.1,7v-34.2
		L272.4,259.3L272.4,259.3z M254.3,300.5c-5.3,0-9.8,2-13.3,5.8c-3.5,3.8-5.3,8.8-5.3,14.6c0,6,1.8,11.1,5.5,14.8
		c3.5,3.8,8,5.8,13.3,5.8c5.5,0,10.1-2,13.6-5.8s5.5-8.8,5.5-15.1c0-6-1.8-11.1-5.5-14.6C264.4,302.3,259.6,300.5,254.3,300.5z"/>
</g>
<g>
	<path class="st2" d="M426.7,49.5h2.4l4.7,12.3h-2.4l-1-2.5h-5l-1,2.5H422L426.7,49.5z M427.9,52.7l-1.7,4.2h3.3L427.9,52.7z"/>
	<path class="st2" d="M442.2,49.2h2.3v12.6h-2.3v-1c-0.4,0.4-0.9,0.7-1.3,0.9S440,62,439.4,62c-1.2,0-2.2-0.5-3.1-1.4
		s-1.3-2-1.3-3.4s0.4-2.6,1.2-3.5c0.8-0.9,1.8-1.3,3-1.3c0.5,0,1.1,0.1,1.5,0.3c0.5,0.2,0.9,0.5,1.3,0.9v-4.4
		C442,49.2,442.2,49.2,442.2,49.2z M439.7,54.6c-0.7,0-1.3,0.3-1.8,0.8s-0.7,1.1-0.7,1.9c0,0.8,0.2,1.4,0.7,1.9s1.1,0.8,1.8,0.8
		c0.7,0,1.3-0.3,1.8-0.8s0.7-1.2,0.7-2s-0.2-1.4-0.7-1.9C441.1,54.8,440.5,54.6,439.7,54.6z"/>
	<path class="st2" d="M446.7,52.7h2.3v1c0.4-0.4,0.8-0.8,1.3-1s1-0.3,1.6-0.3s1.1,0.1,1.5,0.4c0.5,0.3,0.8,0.7,1.1,1.2
		c0.4-0.5,0.8-0.9,1.3-1.2s1.1-0.4,1.7-0.4s1.2,0.2,1.7,0.5s0.8,0.7,1.1,1.2c0.2,0.5,0.3,1.3,0.3,2.4v5.3h-2.3v-4.6
		c0-1-0.1-1.7-0.4-2.1c-0.3-0.4-0.6-0.5-1.2-0.5c-0.4,0-0.7,0.1-1.1,0.3c-0.3,0.2-0.5,0.5-0.7,0.9s-0.2,1-0.2,1.9v4.1h-2.3v-4.4
		c0-0.8-0.1-1.4-0.2-1.8c-0.1-0.4-0.3-0.6-0.5-0.8s-0.5-0.3-0.9-0.3s-0.7,0.1-1,0.3s-0.5,0.5-0.7,1c-0.2,0.4-0.2,1.1-0.2,1.9v4.1
		h-2.3v-9.1C446.6,52.7,446.7,52.7,446.7,52.7z"/>
	<path class="st2" d="M463.8,48.9c0.4,0,0.7,0.1,1,0.4c0.3,0.3,0.4,0.6,0.4,1.1c0,0.4-0.1,0.8-0.4,1s-0.6,0.4-1,0.4s-0.8-0.1-1-0.4
		s-0.4-0.6-0.4-1.1c0-0.4,0.1-0.7,0.4-1C463,49.1,463.4,48.9,463.8,48.9z M462.6,52.7h2.3v9.1h-2.3V52.7z"/>
	<path class="st2" d="M467,52.7h2.3v0.9c0.5-0.4,1-0.7,1.4-0.9s0.9-0.3,1.3-0.3c0.9,0,1.7,0.3,2.3,0.9c0.5,0.5,0.8,1.3,0.8,2.4v6
		h-2.3v-4c0-1.1,0-1.8-0.1-2.2s-0.3-0.6-0.5-0.8s-0.5-0.3-0.9-0.3c-0.5,0-0.9,0.2-1.2,0.5c-0.3,0.3-0.6,0.7-0.7,1.3
		c-0.1,0.3-0.1,0.9-0.1,1.9v3.7H467V52.7z"/>
</g>
<g>
	<g>
		<path class="st1" d="M240.3,422.5h12.2l23.8,62.4h-12.2l-5.1-12.7h-25.4l-5.1,12.7h-12.2L240.3,422.5z M246.3,438.7l-8.6,21.3
			h16.7L246.3,438.7z"/>
		<path class="st1" d="M318.9,421h11.7v63.9h-11.7v-5.1c-2,2-4.6,3.5-6.6,4.6c-2,1-4.6,1.5-7.6,1.5c-6.1,0-11.2-2.5-15.7-7.1
			c-4.6-4.6-6.6-10.1-6.6-17.2s2-13.2,6.1-17.7c4.1-4.6,9.1-6.6,15.2-6.6c2.5,0,5.6,0.5,7.6,1.5c2.5,1,4.6,2.5,6.6,4.6V421H318.9z
			 M306.2,448.4c-3.5,0-6.6,1.5-9.1,4.1s-3.5,5.6-3.5,9.6c0,4.1,1,7.1,3.5,9.6s5.6,4.1,9.1,4.1s6.6-1.5,9.1-4.1
			c2.5-2.5,3.5-6.1,3.5-10.1s-1-7.1-3.5-9.6C313.3,449.4,310.2,448.4,306.2,448.4z"/>
		<path class="st1" d="M341.7,438.7h11.7v5.1c2-2,4.1-4.1,6.6-5.1s5.1-1.5,8.1-1.5s5.6,0.5,7.6,2c2.5,1.5,4.1,3.5,5.6,6.1
			c2-2.5,4.1-4.6,6.6-6.1s5.6-2,8.6-2s6.1,1,8.6,2.5s4.1,3.5,5.6,6.1c1,2.5,1.5,6.6,1.5,12.2v26.9h-11.7v-23.3c0-5.1-0.5-8.6-2-10.6
			s-3-2.5-6.1-2.5c-2,0-3.5,0.5-5.6,1.5c-1.5,1-2.5,2.5-3.5,4.6c-1,2-1,5.1-1,9.6V485h-11.7v-22.3c0-4.1-0.5-7.1-1-9.1
			s-1.5-3-2.5-4.1s-2.5-1.5-4.6-1.5s-3.5,0.5-5.1,1.5s-2.5,2.5-3.5,5.1c-1,2-1,5.6-1,9.6V485h-11.7v-46.1h0.5V438.7z"/>
		<path class="st1" d="M428.4,419.5c2,0,3.5,0.5,5.1,2c1.5,1.5,2,3,2,5.6c0,2-0.5,4.1-2,5.1s-3,2-5.1,2s-4.1-0.5-5.1-2s-2-3-2-5.6
			c0-2,0.5-3.5,2-5.1C424.3,420.5,426.4,419.5,428.4,419.5z M422.3,438.7H434v46.1h-11.7V438.7z"/>
		<path class="st1" d="M444.6,438.7h11.7v4.6c2.5-2,5.1-3.5,7.1-4.6c2-1,4.6-1.5,6.6-1.5c4.6,0,8.6,1.5,11.7,4.6
			c2.5,2.5,4.1,6.6,4.1,12.2v30.4H474v-20.3c0-5.6,0-9.1-0.5-11.2c-0.5-2-1.5-3-2.5-4.1c-1-1-2.5-1.5-4.6-1.5c-2.5,0-4.6,1-6.1,2.5
			s-3,3.5-3.5,6.6c-0.5,1.5-0.5,4.6-0.5,9.6v18.8h-11.7L444.6,438.7L444.6,438.7z"/>
	</g>
	<circle class="st1" cx="70.5" cy="453" r="41.4"/>
	<g>
		<path class="st0" d="M103.8,457.5H52.7c0.7,4.5,2.7,8.1,5.9,10.8c3.2,2.7,7.2,4,12.3,4c5.9,0,11.1-2,15.3-6.2l13.5,6.2
			c-3.4,4.7-7.4,8.2-11.9,10.6s-10.3,3.4-16.7,3.4c-9.9,0-18-3.2-24.4-9.4c-6.2-6.2-9.4-14.1-9.4-23.6c0-9.8,3.2-17.7,9.4-24.1
			s14.1-9.6,23.6-9.6c9.9,0,18.2,3.2,24.4,9.6c6.2,6.4,9.4,14.8,9.4,25.4L103.8,457.5z M87.9,444.9c-1-3.5-3-6.4-6.2-8.6
			c-3-2.2-6.7-3.4-10.8-3.4c-4.4,0-8.4,1.2-11.8,3.7c-2.2,1.5-4,4.4-5.9,8.2C53.2,444.9,87.9,444.9,87.9,444.9z"/>
	</g>
	<path class="st0" d="M118.8,421.5h34.3v11.8h-22.6v11.4H153v11.4h-22.4v16.5H153v11.8h-34.2V421.5z"/>
	<path class="st0" d="M197.3,420.1h11.6v64.5h-11.6v-4.9c-2.4,2.2-4.5,3.7-6.9,4.7s-4.7,1.5-7.4,1.5c-6.1,0-11.3-2.4-15.7-7.1
		c-4.2-4.7-6.4-10.4-6.4-17.5c0-7.2,2.2-13.1,6.4-17.7c4.2-4.5,9.4-6.9,15.5-6.9c2.9,0,5.4,0.5,7.9,1.5s4.7,2.7,6.7,4.7V420
		L197.3,420.1L197.3,420.1z M185.1,447.7c-3.5,0-6.6,1.3-8.9,3.9c-2.4,2.5-3.5,5.9-3.5,9.8c0,4,1.2,7.4,3.7,9.9
		c2.4,2.5,5.4,3.9,8.9,3.9c3.7,0,6.7-1.3,9.1-3.9c2.4-2.5,3.7-5.9,3.7-10.1c0-4-1.2-7.4-3.7-9.8
		C191.9,448.9,188.7,447.7,185.1,447.7z"/>
</g>
</svg>
